<?xml version="1.0" encoding="UTF-8" standalone="no"?>
<svg
   xmlns:dc="http://purl.org/dc/elements/1.1/"
   xmlns:cc="http://creativecommons.org/ns#"
   xmlns:rdf="http://www.w3.org/1999/02/22-rdf-syntax-ns#"
   xmlns:svg="http://www.w3.org/2000/svg"
   xmlns="http://www.w3.org/2000/svg"
   version="1.1"
   id="svg2"
   viewBox="0 0 226.98587 120.1306"
   height="33.903526mm"
   width="64.060455mm">
  <defs
     id="defs4" />
  <metadata
     id="metadata7">
    <rdf:RDF>
      <cc:Work
         rdf:about="">
        <dc:format>image/svg+xml</dc:format>
        <dc:type
           rdf:resource="http://purl.org/dc/dcmitype/StillImage" />
        <dc:title></dc:title>
      </cc:Work>
    </rdf:RDF>
  </metadata>
  <g
     transform="translate(-308.38123,-299.25018)"
     id="layer1">
    <g
       transform="matrix(3.2777686,0,0,3.2777686,-742.77524,-721.97682)"
       id="g3410">
      <text
         xml:space="preserve"
         style="font-style:normal;font-weight:normal;font-size:40px;line-height:125%;font-family:sans-serif;letter-spacing:0px;word-spacing:0px;fill:#d40000;fill-opacity:1;stroke:none;stroke-width:1px;stroke-linecap:butt;stroke-linejoin:miter;stroke-opacity:1"
         x="325.01776"
         y="342.28671"
         id="text3347"><tspan
           id="tspan3349"
           x="325.01776"
           y="342.28671"
           style="font-style:normal;font-variant:normal;font-weight:bold;font-stretch:normal;font-family:'Ubuntu Mono';-inkscape-font-specification:'Ubuntu Mono';fill:#d40000">G V</tspan></text>
      <path
         style="fill:#d40000"
         d="m 355.69745,321.48896 a 8.3969803,8.3969803 0 0 0 -8.39649,8.39844 8.3969803,8.3969803 0 0 0 8.39649,8.39649 8.3969803,8.3969803 0 0 0 8.39648,-8.39649 8.3969803,8.3969803 0 0 0 -8.39648,-8.39844 z m -3.21094,4.84571 c 0.89254,0 1.58452,0.18601 2.07617,0.55664 0.49165,0.36306 0.73828,0.96094 0.73828,1.79297 0,0.83959 -0.25078,1.44797 -0.75,1.82617 -0.49165,0.37063 -1.18999,0.55664 -2.09765,0.55664 l -0.5,0 0,2.37109 -1.39453,0 0,-6.93164 c 0.13615,-0.0302 0.28672,-0.0574 0.45312,-0.0801 0.17397,-0.0227 0.34752,-0.0374 0.52148,-0.0449 0.17397,-0.0151 0.34532,-0.0276 0.51172,-0.0351 0.16641,-0.008 0.31282,-0.0117 0.44141,-0.0117 z m 3.9375,0.0801 1.40625,0 0,5.86524 3.00781,0 0,1.1582 -4.41406,0 0,-7.02344 z m -3.77734,1.13477 c -0.0832,0 -0.20224,0.004 -0.35352,0.0117 -0.14371,0 -0.25664,0.006 -0.33984,0.0215 l 0,2.26953 0.56836,0 c 0.44627,0 0.78285,-0.0858 1.00976,-0.25976 0.22692,-0.18153 0.33985,-0.48878 0.33985,-0.91992 0,-0.40845 -0.11293,-0.69493 -0.33985,-0.86133 -0.21935,-0.17397 -0.51413,-0.26172 -0.88476,-0.26172 z"
         id="path3359" />
    </g>
  </g>
</svg>
